<?xml version="1.0" standalone="no"?>
<!DOCTYPE svg PUBLIC "-//W3C//DTD SVG 20010904//EN"
 "http://www.w3.org/TR/2001/REC-SVG-20010904/DTD/svg10.dtd">
<svg version="1.0" xmlns="http://www.w3.org/2000/svg"
 width="1446.000000pt" height="1085.000000pt" viewBox="0 0 1446.000000 1085.000000"
 preserveAspectRatio="xMidYMid meet">

<g transform="translate(0.000000,1085.000000) scale(0.100000,-0.100000)"
fill="#000000" stroke="none">
<path d="M6737 9274 c-63 -20 -119 -77 -140 -145 -21 -62 -23 -162 -4 -178 8
-6 45 -20 83 -31 38 -11 85 -25 105 -31 39 -12 247 -16 314 -7 97 14 205 51
205 70 0 15 -28 102 -44 137 -17 37 -97 115 -133 132 -18 7 -33 17 -33 20 0 3
-23 9 -52 12 -28 4 -54 11 -57 16 -12 18 -192 22 -244 5z m328 -44 c3 -5 -1
-10 -10 -10 -9 0 -13 5 -10 10 3 6 8 10 10 10 2 0 7 -4 10 -10z"/>
<path d="M8202 9189 c-61 -12 -158 -61 -231 -118 -112 -88 -151 -154 -151
-258 0 -41 5 -58 27 -83 24 -29 30 -31 77 -28 28 3 94 14 146 26 137 30 347
53 473 51 81 -1 112 2 122 12 17 19 35 76 34 108 -1 44 -51 138 -89 165 -48
35 -148 86 -190 97 -52 14 -164 39 -170 38 -3 -1 -24 -5 -48 -10z m135 -91
c-3 -7 -5 -2 -5 12 0 14 2 19 5 13 2 -7 2 -19 0 -25z m-80 -30 c-3 -7 -5 -2
-5 12 0 14 2 19 5 13 2 -7 2 -19 0 -25z m263 -28 c0 -5 -7 -7 -15 -4 -8 4 -15
8 -15 10 0 2 7 4 15 4 8 0 15 -4 15 -10z m28 -45 c-3 -3 -9 2 -12 12 -6 14 -5
15 5 6 7 -7 10 -15 7 -18z m-108 -49 c0 -2 -7 -6 -15 -10 -8 -3 -15 -1 -15 4
0 6 7 10 15 10 8 0 15 -2 15 -4z m-62 -133 c-10 -2 -28 -2 -40 0 -13 2 -5 4
17 4 22 1 32 -1 23 -4z"/>
<path d="M5755 9160 c-11 -3 -37 -14 -57 -23 -48 -22 -60 -21 -108 3 -22 11
-46 20 -55 20 -32 0 -75 -58 -112 -150 -6 -14 -18 -42 -27 -63 -9 -21 -16 -47
-16 -58 0 -36 -32 -78 -64 -84 -55 -11 -83 -26 -96 -51 -12 -22 -11 -27 15
-54 16 -17 36 -30 45 -30 9 0 21 -5 27 -11 6 -6 23 -9 39 -7 28 3 29 6 34 63
5 58 6 60 40 71 19 6 139 14 265 18 257 6 278 3 283 -49 6 -60 10 -61 57 -15
68 66 62 75 -64 102 l-65 14 -12 71 c-28 168 -74 251 -129 233z"/>
<path d="M7170 8516 c0 -1 11 -24 25 -50 31 -59 33 -131 5 -186 -11 -21 -24
-42 -30 -45 -6 -4 -8 -10 -5 -15 3 -5 -13 -49 -36 -97 -23 -48 -63 -135 -91
-193 -27 -58 -53 -113 -58 -122 -6 -10 -10 -24 -10 -32 0 -8 -4 -17 -9 -20
-14 -9 -41 5 -41 21 0 8 -7 31 -16 51 -9 21 -20 46 -24 57 -5 11 -23 52 -40
90 -17 39 -36 81 -42 95 -6 14 -17 37 -24 52 -8 14 -14 36 -14 49 0 12 -11 37
-25 55 -21 27 -25 44 -25 96 0 41 5 71 16 86 29 42 3 45 -40 5 -89 -84 -223
-183 -248 -183 -10 0 -44 14 -75 31 -32 18 -103 55 -158 84 -55 29 -136 71
-179 94 -44 23 -85 40 -93 37 -9 -4 -13 -26 -13 -73 -1 -37 -6 -88 -11 -113
-6 -25 -13 -60 -16 -78 -3 -18 -9 -35 -14 -38 -5 -3 -9 -20 -9 -37 0 -37 -23
-111 -56 -182 -13 -28 -24 -54 -24 -58 0 -11 -82 -130 -100 -144 -12 -11 -20
-7 -44 20 -30 34 -116 202 -116 227 0 9 -4 20 -9 25 -5 6 -14 37 -20 70 -5 33
-15 85 -21 115 -6 30 -8 76 -4 103 7 58 -1 60 -67 12 -27 -19 -51 -35 -54 -35
-3 0 -30 -18 -60 -40 -30 -22 -57 -40 -60 -40 -3 0 -11 -5 -18 -10 -7 -6 -45
-33 -85 -61 -40 -28 -75 -58 -78 -67 -3 -9 -11 -30 -19 -47 -30 -67 -99 -272
-130 -385 -9 -36 -21 -76 -25 -90 -4 -14 -15 -61 -25 -105 -9 -44 -20 -96 -25
-115 -12 -47 -37 -187 -50 -285 -6 -44 -15 -105 -20 -135 -5 -30 -14 -140 -20
-244 -6 -103 -12 -192 -15 -196 -10 -17 16 -156 39 -206 26 -57 54 -77 121
-89 22 -4 52 -14 67 -21 14 -8 51 -17 81 -20 l55 -7 6 -86 c10 -131 25 -267
42 -361 25 -142 44 -243 54 -280 25 -98 42 -157 51 -172 5 -10 9 -25 9 -33 0
-9 18 -52 41 -97 39 -78 40 -83 29 -124 -8 -26 -10 -74 -6 -126 9 -133 16
-164 42 -189 18 -17 24 -33 24 -65 0 -24 4 -45 9 -48 4 -3 11 -45 14 -93 11
-178 28 -370 38 -427 6 -33 13 -98 16 -146 l6 -86 -42 -73 c-48 -84 -53 -131
-19 -155 28 -20 128 -21 189 -2 24 7 71 21 104 31 33 10 66 24 73 30 8 7 18
41 23 76 4 35 16 105 25 154 24 127 31 537 10 636 -20 100 -19 102 70 94 86
-8 77 -23 74 132 l-1 102 37 16 c53 22 62 19 74 -24 13 -50 14 -262 1 -360 -5
-40 -7 -79 -4 -87 2 -7 19 -14 36 -16 l32 -3 2 -67 c1 -43 8 -77 19 -92 14
-22 15 -35 4 -103 -6 -43 -15 -107 -20 -143 -4 -36 -9 -69 -11 -75 -6 -20 14
-79 35 -101 29 -32 103 -53 141 -41 44 14 82 54 88 91 3 19 17 45 32 60 l26
26 -2 175 c-1 150 1 178 15 194 10 11 16 35 16 67 0 28 5 55 12 62 26 26 25
27 54 -183 8 -60 19 -145 24 -187 5 -43 11 -82 14 -87 3 -5 8 -37 12 -72 3
-35 10 -82 15 -104 5 -22 9 -63 9 -91 0 -28 7 -71 15 -94 8 -23 15 -58 15 -76
0 -36 12 -45 74 -59 25 -5 28 -9 23 -38 -18 -107 -30 -135 -84 -201 -37 -45
-40 -70 -17 -120 26 -54 65 -69 159 -62 236 18 230 13 221 156 -4 58 -11 242
-16 410 -5 168 -13 406 -18 530 -6 124 -12 285 -13 359 l-3 135 30 17 c17 9
46 20 65 24 19 4 39 10 44 14 6 4 28 13 50 20 22 7 55 20 73 29 31 14 35 14
54 -5 14 -14 23 -42 29 -84 4 -35 13 -95 19 -134 16 -108 0 -164 -67 -233 -18
-19 -16 -123 3 -174 10 -24 29 -56 44 -73 52 -56 71 -111 74 -215 6 -159 66
-292 166 -364 105 -76 161 -69 173 18 8 55 -10 303 -24 327 -5 10 -9 28 -9 41
0 13 -11 55 -25 93 -23 63 -25 80 -19 170 5 89 -3 183 -21 255 -4 17 0 31 12
45 10 11 34 40 53 65 55 72 91 100 128 100 37 0 44 -11 83 -137 11 -37 27 -83
35 -101 8 -18 14 -41 14 -52 0 -10 4 -21 9 -24 5 -3 11 -20 14 -38 3 -18 13
-58 22 -88 23 -74 36 -158 74 -480 5 -41 14 -106 19 -145 11 -79 35 -273 36
-294 1 -12 19 -24 101 -63 26 -12 30 -19 27 -49 -6 -70 -53 -203 -80 -230 -15
-15 -37 -38 -49 -53 l-23 -26 29 -32 c29 -32 31 -33 113 -33 48 0 98 6 118 14
19 8 51 20 70 28 99 40 125 57 123 83 -1 14 -5 60 -9 103 -7 74 -6 77 14 77
11 0 23 -8 26 -17 3 -10 26 -38 51 -63 58 -58 68 -79 74 -170 l6 -75 40 -3
c22 -2 45 -8 51 -13 6 -5 60 -10 120 -10 l108 -1 28 31 c45 51 36 122 -29 227
-17 28 -39 78 -49 110 -10 32 -32 104 -49 158 l-32 100 28 45 c34 55 69 184
69 257 0 52 0 53 38 65 20 6 42 15 47 19 6 4 21 10 35 12 14 3 63 20 110 37
47 18 108 39 135 48 28 8 64 21 80 28 17 7 57 21 90 31 33 10 64 22 69 26 6 4
19 8 31 8 12 0 25 4 31 9 5 5 38 18 74 29 87 28 200 69 206 75 3 2 0 24 -6 48
-6 24 -15 60 -19 79 -12 53 -101 311 -165 480 -13 36 -30 81 -37 100 -7 19
-18 49 -24 65 -7 17 -18 46 -25 65 -6 19 -16 44 -21 55 -4 11 -22 56 -39 100
-17 44 -34 89 -39 100 -5 11 -16 40 -26 65 -19 50 -31 80 -51 125 -6 17 -25
62 -40 100 -34 88 -36 91 -73 76 -35 -15 -66 -3 -76 30 -5 15 1 29 23 53 80
83 97 137 66 203 -13 25 -22 33 -38 31 -18 -3 -22 -11 -26 -73 -7 -92 -38
-140 -67 -102 -18 22 -24 81 -17 180 l7 98 35 14 c69 29 221 15 245 -22 22
-35 74 7 79 64 2 28 9 41 25 48 37 16 36 49 -8 180 -6 17 -19 66 -31 110 -11
44 -23 89 -28 100 -5 11 -11 31 -13 45 -3 14 -18 68 -32 120 -46 162 -86 303
-95 340 -5 19 -16 62 -25 95 -9 33 -20 76 -25 95 -5 19 -16 62 -25 95 -9 33
-20 78 -24 100 -4 23 -10 46 -14 52 -9 15 -47 212 -47 245 0 15 -4 30 -10 33
-5 3 -10 25 -10 47 0 23 -4 55 -9 72 -5 17 -17 67 -26 111 -10 44 -29 109 -44
145 -26 62 -30 66 -97 101 -58 29 -167 77 -249 109 -11 4 -40 15 -65 25 -25 9
-53 21 -62 26 -10 5 -24 9 -31 9 -22 0 -54 42 -73 97 -17 48 -38 72 -52 58 -3
-3 0 -16 6 -30 7 -15 12 -77 12 -151 0 -113 -2 -126 -21 -142 -20 -17 -43 -60
-68 -132 -7 -19 -19 -48 -26 -65 -7 -16 -17 -41 -23 -55 -69 -175 -92 -209
-109 -162 -8 22 -36 86 -79 180 -19 41 -34 77 -34 80 0 4 -12 33 -27 64 -18
37 -34 58 -45 58 -40 0 -84 168 -75 282 4 52 3 68 -8 72 -9 3 -20 -7 -31 -30
-15 -31 -78 -94 -96 -94 -10 0 -316 -141 -370 -170 -28 -16 -35 -12 -41 19 -8
41 -103 177 -148 213 -21 17 -59 58 -85 92 -73 94 -124 145 -124 122z m-1220
-1611 l0 -505 -185 0 -185 0 0 426 0 425 -22 -6 c-13 -4 -43 -16 -67 -26 -58
-25 -101 -25 -101 0 0 28 13 35 160 79 74 23 187 57 250 76 63 19 123 35 133
35 16 1 17 -29 17 -504z m731 489 c113 -34 189 -96 240 -196 58 -114 75 -285
44 -431 -30 -143 -131 -279 -250 -338 -104 -51 -286 -56 -388 -11 -54 24 -99
70 -95 96 5 34 37 31 77 -7 20 -19 46 -40 58 -46 38 -20 133 -33 184 -26 l49
7 0 454 c0 411 -2 455 -16 461 -28 10 -161 -15 -212 -41 -104 -54 -157 -144
-157 -271 0 -63 5 -89 22 -120 48 -90 116 -127 238 -129 75 -1 80 -3 83 -23 4
-29 -28 -38 -119 -30 -123 10 -213 68 -261 166 -32 65 -33 215 -1 283 44 95
139 172 253 204 65 18 187 17 251 -2z m974 -14 c78 -30 159 -109 175 -171 30
-109 -8 -207 -172 -450 -109 -161 -161 -247 -173 -288 l-7 -24 178 4 179 4 0
-25 c0 -20 -6 -26 -35 -32 -19 -4 -189 -7 -377 -7 -395 -1 -362 -12 -318 106
38 100 102 204 269 433 194 267 206 286 206 331 0 127 -249 132 -376 8 -46
-45 -77 -49 -82 -10 -7 44 60 97 168 133 81 27 281 20 365 -12z m961 -10 c81
-42 141 -110 174 -196 31 -85 40 -143 40 -274 0 -185 -38 -306 -126 -400 -57
-61 -124 -96 -209 -110 -236 -38 -407 74 -471 306 -24 88 -29 283 -10 372 31
147 100 248 202 298 78 38 106 43 225 41 100 -2 111 -4 175 -37z m-2869 -1266
c29 -9 60 -25 69 -35 16 -18 16 -24 -5 -112 -25 -100 -42 -137 -74 -156 -30
-19 -35 -1 -30 93 5 74 3 83 -16 100 -21 19 -22 19 -36 0 -9 -11 -13 -29 -9
-44 3 -14 9 -47 14 -75 4 -27 11 -60 15 -71 9 -29 -21 -40 -48 -17 -56 50 -96
164 -99 282 -1 38 2 41 44 52 42 10 108 4 175 -17z m1836 -54 c61 -66 100
-162 105 -256 5 -98 -7 -115 -49 -64 -26 30 -29 32 -44 16 -15 -15 -14 -21 24
-78 42 -62 46 -90 14 -102 -20 -8 -54 14 -90 59 -31 39 -49 44 -69 18 -11 -15
-16 -16 -33 -5 -12 6 -27 12 -35 12 -22 0 -65 40 -85 78 -36 72 -53 241 -27
267 8 8 40 26 72 40 33 15 73 33 89 40 56 25 89 19 128 -25z m1025 -1986 l22
-6 0 -322 c1 -259 3 -326 15 -346 22 -39 19 -97 -9 -133 -13 -18 -27 -42 -31
-55 -8 -29 -41 -47 -48 -27 -3 7 -1 58 5 112 11 103 4 350 -13 463 -5 36 -11
81 -14 100 -3 19 -13 69 -22 112 -9 42 -13 83 -10 92 7 17 60 22 105 10z"/>
<path d="M8420 6901 l0 -461 38 0 c136 0 252 112 297 285 20 77 20 278 0 363
-38 160 -135 254 -279 269 l-56 6 0 -462z"/>
<path d="M6915 8320 c4 -6 11 -8 16 -5 14 9 11 15 -7 15 -8 0 -12 -5 -9 -10z"/>
</g>
</svg>
