<svg xmlns="http://www.w3.org/2000/svg" viewBox="0 0 524.44 662.68"><title>Recurso 1</title><g id="Capa_2" data-name="Capa 2"><g id="Capa_1-2" data-name="Capa 1"><path d="M201.42,1.08a22.49,22.49,0,0,0-14,14.5c-2.1,6.2-2.3,16.2-.4,17.8.8.6,4.5,2,8.3,3.1s8.5,2.5,10.5,3.1c3.9,1.2,24.7,1.6,31.4.7,9.7-1.4,20.5-5.1,20.5-7,0-1.5-2.8-10.2-4.4-13.7-1.7-3.7-9.7-11.5-13.3-13.2-1.8-.7-3.3-1.7-3.3-2s-2.3-.9-5.2-1.2-5.4-1.1-5.7-1.6C224.62-.22,206.62-.62,201.42,1.08Zm32.8,4.4c.3.5-.1,1-1,1s-1.3-.5-1-1,.8-1,1-1S233.92,4.88,234.22,5.48Z"/><path d="M347.92,9.58c-6.1,1.2-15.8,6.1-23.1,11.8-11.2,8.8-15.1,15.4-15.1,25.8,0,4.1.5,5.8,2.7,8.3,2.4,2.9,3,3.1,7.7,2.8,2.8-.3,9.4-1.4,14.6-2.6,13.7-3,34.7-5.3,47.3-5.1,8.1.1,11.2-.2,12.2-1.2,1.7-1.9,3.5-7.6,3.4-10.8-.1-4.4-5.1-13.8-8.9-16.5-4.8-3.5-14.8-8.6-19-9.7-5.2-1.4-16.4-3.9-17-3.8C352.42,8.68,350.32,9.08,347.92,9.58Zm13.5,9.1c-.3.7-.5.2-.5-1.2s.2-1.9.5-1.3A5.28,5.28,0,0,1,361.42,18.68Zm-8,3c-.3.7-.5.2-.5-1.2s.2-1.9.5-1.3A5.28,5.28,0,0,1,353.42,21.68Zm26.3,2.8c0,.5-.7.7-1.5.4s-1.5-.8-1.5-1,.7-.4,1.5-.4S379.72,23.88,379.72,24.48Zm2.8,4.5c-.3.3-.9-.2-1.2-1.2-.6-1.4-.5-1.5.5-.6C382.52,27.88,382.82,28.68,382.52,29Zm-10.8,4.9c0,.2-.7.6-1.5,1s-1.5.1-1.5-.4.7-1,1.5-1S371.72,33.68,371.72,33.88Zm-6.2,13.3a13.39,13.39,0,0,1-4,0c-1.3-.2-.5-.4,1.7-.4S366.42,46.88,365.52,47.18Z"/><path d="M103.22,12.48a56.42,56.42,0,0,0-5.7,2.3c-4.8,2.2-6,2.1-10.8-.3a18.67,18.67,0,0,0-5.5-2c-3.2,0-7.5,5.8-11.2,15l-2.7,6.3a19.72,19.72,0,0,0-1.6,5.8c0,3.6-3.2,7.8-6.4,8.4-5.5,1.1-8.3,2.6-9.6,5.1-1.2,2.2-1.1,2.7,1.5,5.4,1.6,1.7,3.6,3,4.5,3a4.36,4.36,0,0,1,2.7,1.1c.6.6,2.3.9,3.9.7,2.8-.3,2.9-.6,3.4-6.3s.6-6,4-7.1c1.9-.6,13.9-1.4,26.5-1.8,25.7-.6,27.8-.3,28.3,4.9.6,6,1,6.1,5.7,1.5,6.8-6.6,6.2-7.5-6.4-10.2l-6.5-1.4-1.2-7.1C113.32,19,108.72,10.68,103.22,12.48Z"/><path d="M244.72,76.88c0,.1,1.1,2.4,2.5,5a20.7,20.7,0,0,1,.5,18.6c-1.1,2.1-2.4,4.2-3,4.5a1.1,1.1,0,0,0-.5,1.5c.3.5-1.3,4.9-3.6,9.7s-6.3,13.5-9.1,19.3-5.3,11.3-5.8,12.2a7.35,7.35,0,0,0-1,3.2,2.53,2.53,0,0,1-.9,2c-1.4.9-4.1-.5-4.1-2.1a18.42,18.42,0,0,0-1.6-5.1c-.9-2.1-2-4.6-2.4-5.7s-2.3-5.2-4-9-3.6-8.1-4.2-9.5-1.7-3.7-2.4-5.2a11.79,11.79,0,0,1-1.4-4.9c0-1.2-1.1-3.7-2.5-5.5-2.1-2.7-2.5-4.4-2.5-9.6,0-4.1.5-7.1,1.6-8.6,2.9-4.2.3-4.5-4-.5-8.9,8.4-22.3,18.3-24.8,18.3-1,0-4.4-1.4-7.5-3.1s-10.3-5.5-15.8-8.4-13.6-7.1-17.9-9.4-8.5-4-9.3-3.7-1.3,2.6-1.3,7.3a83.14,83.14,0,0,1-1.1,11.3c-.6,2.5-1.3,6-1.6,7.8s-.9,3.5-1.4,3.8-.9,2-.9,3.7c0,3.7-2.3,11.1-5.6,18.2a41.51,41.51,0,0,0-2.4,5.8c0,1.1-8.2,13-10,14.4-1.2,1.1-2,.7-4.4-2-3-3.4-11.6-20.2-11.6-22.7a4,4,0,0,0-.9-2.5c-.5-.6-1.4-3.7-2-7s-1.5-8.5-2.1-11.5a36,36,0,0,1-.4-10.3c.7-5.8-.1-6-6.7-1.2a41.8,41.8,0,0,1-5.4,3.5,45.39,45.39,0,0,0-6,4,45.39,45.39,0,0,1-6,4,5.6,5.6,0,0,0-1.8,1c-.7.6-4.5,3.3-8.5,6.1s-7.5,5.8-7.8,6.7-1.1,3-1.9,4.7c-3,6.7-9.9,27.2-13,38.5-.9,3.6-2.1,7.6-2.5,9s-1.5,6.1-2.5,10.5-2,9.6-2.5,11.5c-1.2,4.7-3.7,18.7-5,28.5-.6,4.4-1.5,10.5-2,13.5s-1.4,14-2,24.4-1.2,19.2-1.5,19.6c-1,1.7,1.6,15.6,3.9,20.6,2.6,5.7,5.4,7.7,12.1,8.9a33.12,33.12,0,0,1,6.7,2.1,26.43,26.43,0,0,0,8.1,2l5.5.7.6,8.6c1,13.1,2.5,26.7,4.2,36.1,2.5,14.2,4.4,24.3,5.4,28,2.5,9.8,4.2,15.7,5.1,17.2a9.11,9.11,0,0,1,.9,3.3c0,.9,1.8,5.2,4.1,9.7,3.9,7.8,4,8.3,2.9,12.4-.8,2.6-1,7.4-.6,12.6.9,13.3,1.6,16.4,4.2,18.9,1.8,1.7,2.4,3.3,2.4,6.5,0,2.4.4,4.5.9,4.8s1.1,4.5,1.4,9.3c1.1,17.8,2.8,37,3.8,42.7.6,3.3,1.3,9.8,1.6,14.6l.6,8.6-4.2,7.3c-4.8,8.4-5.3,13.1-1.9,15.5,2.8,2,12.8,2.1,18.9.2,2.4-.7,7.1-2.1,10.4-3.1a31.73,31.73,0,0,0,7.3-3c.8-.7,1.8-4.1,2.3-7.6s1.6-10.5,2.5-15.4c2.4-12.7,3.1-53.7,1-63.6s-1.9-10.2,7-9.4c8.6.8,7.7,2.3,7.4-13.2l-.1-10.2,3.7-1.6c5.3-2.2,6.2-1.9,7.4,2.4,1.3,5,1.4,26.2.1,36-.5,4-.7,7.9-.4,8.7s1.9,1.4,3.6,1.6l3.2.3.2,6.7c.1,4.3.8,7.7,1.9,9.2,1.4,2.2,1.5,3.5.4,10.3-.6,4.3-1.5,10.7-2,14.3a73.62,73.62,0,0,1-1.1,7.5c-.6,2,1.4,7.9,3.5,10.1,2.9,3.2,10.3,5.3,14.1,4.1,4.4-1.4,8.2-5.4,8.8-9.1a12.59,12.59,0,0,1,3.2-6l2.6-2.6-.2-17.5c-.1-15,.1-17.8,1.5-19.4,1-1.1,1.6-3.5,1.6-6.7,0-2.8.5-5.5,1.2-6.2,2.6-2.6,2.5-2.7,5.4,18.3.8,6,1.9,14.5,2.4,18.7s1.1,8.2,1.4,8.7a40.89,40.89,0,0,1,1.2,7.2,95.26,95.26,0,0,0,1.5,10.4,50.08,50.08,0,0,1,.9,9.1,34.9,34.9,0,0,0,1.5,9.4,29.09,29.09,0,0,1,1.5,7.6c0,3.6,1.2,4.5,7.4,5.9,2.5.5,2.8.9,2.3,3.8-1.8,10.7-3,13.5-8.4,20.1-3.7,4.5-4,7-1.7,12,2.6,5.4,6.5,6.9,15.9,6.2,23.6-1.8,23-1.3,22.1-15.6-.4-5.8-1.1-24.2-1.6-41s-1.3-40.6-1.8-53-1.2-28.5-1.3-35.9l-.3-13.5,3-1.7a29.83,29.83,0,0,1,6.5-2.4,16,16,0,0,0,4.4-1.4,29.17,29.17,0,0,1,5-2,61.67,61.67,0,0,0,7.3-2.9c3.1-1.4,3.5-1.4,5.4.5,1.4,1.4,2.3,4.2,2.9,8.4.4,3.5,1.3,9.5,1.9,13.4,1.6,10.8,0,16.4-6.7,23.3-1.8,1.9-1.6,12.3.3,17.4a30.79,30.79,0,0,0,4.4,7.3c5.2,5.6,7.1,11.1,7.4,21.5.6,15.9,6.6,29.2,16.6,36.4,10.5,7.6,16.1,6.9,17.3-1.8.8-5.5-1-30.3-2.4-32.7a10.72,10.72,0,0,1-.9-4.1c0-1.3-1.1-5.5-2.5-9.3-2.3-6.3-2.5-8-1.9-17a90,90,0,0,0-2.1-25.5,4.76,4.76,0,0,1,1.2-4.5c1-1.1,3.4-4,5.3-6.5,5.5-7.2,9.1-10,12.8-10s4.4,1.1,8.3,13.7c1.1,3.7,2.7,8.3,3.5,10.1a16.24,16.24,0,0,1,1.4,5.2,3.15,3.15,0,0,0,.9,2.4c.5.3,1.1,2,1.4,3.8s1.3,5.8,2.2,8.8c2.3,7.4,3.6,15.8,7.4,48,.5,4.1,1.4,10.6,1.9,14.5,1.1,7.9,3.5,27.3,3.6,29.4.1,1.2,1.9,2.4,10.1,6.3,2.6,1.2,3,1.9,2.7,4.9-.6,7-5.3,20.3-8,23-1.5,1.5-3.7,3.8-4.9,5.3l-2.3,2.6,2.9,3.2c2.9,3.2,3.1,3.3,11.3,3.3,4.8,0,9.8-.6,11.8-1.4s5.1-2,7-2.8c9.9-4,12.5-5.7,12.3-8.3-.1-1.4-.5-6-.9-10.3-.7-7.4-.6-7.7,1.4-7.7a2.92,2.92,0,0,1,2.6,1.7c.3,1,2.6,3.8,5.1,6.3,5.8,5.8,6.8,7.9,7.4,17l.6,7.5,4,.3c2.2.2,4.5.8,5.1,1.3s6,1,12,1l10.8.1,2.8-3.1c4.5-5.1,3.6-12.2-2.9-22.7a60.4,60.4,0,0,1-4.9-11c-1-3.2-3.2-10.4-4.9-15.8l-3.2-10,2.8-4.5c3.4-5.5,6.9-18.4,6.9-25.7,0-5.2,0-5.3,3.8-6.5a21.75,21.75,0,0,0,4.7-1.9,10.06,10.06,0,0,1,3.5-1.2c1.4-.3,6.3-2,11-3.7s10.8-3.9,13.5-4.8a78.5,78.5,0,0,0,8-2.8c1.7-.7,5.7-2.1,9-3.1a39.12,39.12,0,0,0,6.9-2.6,6.38,6.38,0,0,1,3.1-.8,5.43,5.43,0,0,0,3.1-.9c.5-.5,3.8-1.8,7.4-2.9,8.7-2.8,20-6.9,20.6-7.5.3-.2,0-2.4-.6-4.8s-1.5-6-1.9-7.9c-1.2-5.3-10.1-31.1-16.5-48-1.3-3.6-3-8.1-3.7-10s-1.8-4.9-2.4-6.5-1.8-4.6-2.5-6.5-1.6-4.4-2.1-5.5-2.2-5.6-3.9-10-3.4-8.9-3.9-10-1.6-4-2.6-6.5c-1.9-5-3.1-8-5.1-12.5-.6-1.7-2.5-6.2-4-10-3.4-8.8-3.6-9.1-7.3-7.6-3.5,1.5-6.6.3-7.6-3-.5-1.5.1-2.9,2.3-5.3,8-8.3,9.7-13.7,6.6-20.3-1.3-2.5-2.2-3.3-3.8-3.1-1.8.3-2.2,1.1-2.6,7.3-.7,9.2-3.8,14-6.7,10.2-1.8-2.2-2.4-8.1-1.7-18l.7-9.8,3.5-1.4c6.9-2.9,22.1-1.5,24.5,2.2,2.2,3.5,7.4-.7,7.9-6.4.2-2.8.9-4.1,2.5-4.8,3.7-1.6,3.6-4.9-.8-18-.6-1.7-1.9-6.6-3.1-11s-2.3-8.9-2.8-10a19.74,19.74,0,0,1-1.3-4.5c-.3-1.4-1.8-6.8-3.2-12-4.6-16.2-8.6-30.3-9.5-34-.5-1.9-1.6-6.2-2.5-9.5s-2-7.6-2.5-9.5-1.6-6.2-2.5-9.5-2-7.8-2.4-10a20.82,20.82,0,0,0-1.4-5.2c-.9-1.5-4.7-21.2-4.7-24.5,0-1.5-.4-3-1-3.3s-1-2.5-1-4.7a30.77,30.77,0,0,0-.9-7.2c-.5-1.7-1.7-6.7-2.6-11.1a107.72,107.72,0,0,0-4.4-14.5c-2.6-6.2-3-6.6-9.7-10.1-5.8-2.9-16.7-7.7-24.9-10.9-1.1-.4-4-1.5-6.5-2.5a58.35,58.35,0,0,1-6.2-2.6,8.75,8.75,0,0,0-3.1-.9c-2.2,0-5.4-4.2-7.3-9.7-1.7-4.8-3.8-7.2-5.2-5.8-.3.3,0,1.6.6,3s1.2,7.7,1.2,15.1c0,11.3-.2,12.6-2.1,14.2s-4.3,6-6.8,13.2c-.7,1.9-1.9,4.8-2.6,6.5s-1.7,4.1-2.3,5.5c-6.9,17.5-9.2,20.9-10.9,16.2-.8-2.2-3.6-8.6-7.9-18a83.24,83.24,0,0,1-3.4-8,43.12,43.12,0,0,0-2.7-6.4c-1.8-3.7-3.4-5.8-4.5-5.8-4,0-8.4-16.8-7.5-28.2.4-5.2.3-6.8-.8-7.2-.9-.3-2,.7-3.1,3-1.5,3.1-7.8,9.4-9.6,9.4-1,0-31.6,14.1-37,17-2.8,1.6-3.5,1.2-4.1-1.9-.8-4.1-10.3-17.7-14.8-21.3a66.05,66.05,0,0,1-8.5-9.2C249.82,79.68,244.72,74.58,244.72,76.88ZM122.72,238v50.5h-37v-85.1l-2.2.6c-1.3.4-4.3,1.6-6.7,2.6-5.8,2.5-10.1,2.5-10.1,0,0-2.8,1.3-3.5,16-7.9,7.4-2.3,18.7-5.7,25-7.6s12.3-3.5,13.3-3.5C122.62,187.48,122.72,190.48,122.72,238Zm73.1-48.9c11.3,3.4,18.9,9.6,24,19.6,5.8,11.4,7.5,28.5,4.4,43.1-3,14.3-13.1,27.9-25,33.8-10.4,5.1-28.6,5.6-38.8,1.1-5.4-2.4-9.9-7-9.5-9.6.5-3.4,3.7-3.1,7.7.7a34.39,34.39,0,0,0,5.8,4.6c3.8,2,13.3,3.3,18.4,2.6l4.9-.7v-45.4c0-41.1-.2-45.5-1.6-46.1-2.8-1-16.1,1.5-21.2,4.1-10.4,5.4-15.7,14.4-15.7,27.1,0,6.3.5,8.9,2.2,12,4.8,9,11.6,12.7,23.8,12.9,7.5.1,8,.3,8.3,2.3.4,2.9-2.8,3.8-11.9,3-12.3-1-21.3-6.8-26.1-16.6-3.2-6.5-3.3-21.5-.1-28.3,4.4-9.5,13.9-17.2,25.3-20.4C177.22,187.08,189.42,187.18,195.82,189.08Zm97.4,1.4c7.8,3,15.9,10.9,17.5,17.1,3,10.9-.8,20.7-17.2,45-10.9,16.1-16.1,24.7-17.3,28.8l-.7,2.4,17.8-.4,17.9-.4v2.5c0,2-.6,2.6-3.5,3.2-1.9.4-18.9.7-37.7.7-39.5.1-36.2,1.2-31.8-10.6,3.8-10,10.2-20.4,26.9-43.3,19.4-26.7,20.6-28.6,20.6-33.1,0-12.7-24.9-13.2-37.6-.8-4.6,4.5-7.7,4.9-8.2,1-.7-4.4,6-9.7,16.8-13.3C264.82,186.58,284.82,187.28,293.22,190.48Zm96.1,1a36.39,36.39,0,0,1,17.4,19.6c3.1,8.5,4,14.3,4,27.4,0,18.5-3.8,30.6-12.6,40a35.06,35.06,0,0,1-20.9,11c-23.6,3.8-40.7-7.4-47.1-30.6-2.4-8.8-2.9-28.3-1-37.2,3.1-14.7,10-24.8,20.2-29.8,7.8-3.8,10.6-4.3,22.5-4.1C381.82,188,382.92,188.18,389.32,191.48Zm-286.9,126.6c2.9.9,6,2.5,6.9,3.5,1.6,1.8,1.6,2.4-.5,11.2-2.5,10-4.2,13.7-7.4,15.6-3,1.9-3.5.1-3-9.3.5-7.4.3-8.3-1.6-10-2.1-1.9-2.2-1.9-3.6,0a5.22,5.22,0,0,0-.9,4.4c.3,1.4.9,4.7,1.4,7.5a51.75,51.75,0,0,0,1.5,7.1c.9,2.9-2.1,4-4.8,1.7-5.6-5-9.6-16.4-9.9-28.2-.1-3.8.2-4.1,4.4-5.2S95.72,316,102.42,318.08Zm183.6,5.4a42,42,0,0,1,10.5,25.6c.5,9.8-.7,11.5-4.9,6.4-2.6-3-2.9-3.2-4.4-1.6s-1.4,2.1,2.4,7.8c4.2,6.2,4.6,9,1.4,10.2-2,.8-5.4-1.4-9-5.9-3.1-3.9-4.9-4.4-6.9-1.8-1.1,1.5-1.6,1.6-3.3.5a10.37,10.37,0,0,0-3.5-1.2c-2.2,0-6.5-4-8.5-7.8-3.6-7.2-5.3-24.1-2.7-26.7a33.74,33.74,0,0,1,7.2-4c3.3-1.5,7.3-3.3,8.9-4C278.82,318.48,282.12,319.08,286,323.48Zm102.5,198.6,2.2.6v32.2c.1,25.9.3,32.6,1.5,34.6a12.76,12.76,0,0,1-.9,13.3,24.51,24.51,0,0,0-3.1,5.5c-.8,2.9-4.1,4.7-4.8,2.7-.3-.7-.1-5.8.5-11.2,1.1-10.3.4-35-1.3-46.3-.5-3.6-1.1-8.1-1.4-10s-1.3-6.9-2.2-11.2-1.3-8.3-1-9.2C378.72,521.38,384,520.88,388.52,522.08Z"/><path d="M369.72,238.38v46.1h3.8c13.6,0,25.2-11.2,29.7-28.5,2-7.7,2-27.8,0-36.3-3.8-16-13.5-25.4-27.9-26.9l-5.6-.6Z"/><path d="M219.22,96.48a1.22,1.22,0,0,0,1.6.5c1.4-.9,1.1-1.5-.7-1.5C219.32,95.48,218.92,96,219.22,96.48Z"/></g></g></svg>